<?xml version="1.0" standalone="no"?>
<!DOCTYPE svg PUBLIC "-//W3C//DTD SVG 20010904//EN"
 "http://www.w3.org/TR/2001/REC-SVG-20010904/DTD/svg10.dtd">
<svg version="1.0" xmlns="http://www.w3.org/2000/svg"
 width="300.000000pt" height="200.000000pt" viewBox="0 0 300.000000 200.000000"
 preserveAspectRatio="xMidYMid meet">

<g transform="translate(0.000000,200.000000) scale(0.100000,-0.100000)"
fill="#000000" stroke="none">
<path d="M1811 1894 c-130 -35 -235 -123 -298 -250 -37 -76 -38 -80 -38 -191
l0 -113 -26 0 c-41 0 -196 28 -279 51 -104 28 -298 124 -401 198 -47 34 -123
100 -169 146 -45 47 -84 85 -85 85 -9 0 -45 -105 -55 -157 -25 -143 33 -308
146 -412 24 -23 44 -43 44 -46 0 -8 -77 9 -137 30 l-63 23 0 -27 c0 -42 27
-137 56 -193 15 -29 52 -77 83 -108 55 -55 165 -120 203 -120 10 0 18 -4 18
-9 0 -12 -103 -22 -150 -15 -48 8 -49 2 -16 -65 61 -120 190 -215 331 -244
l70 -14 -80 -51 c-141 -91 -316 -141 -497 -143 l-103 -1 128 -63 c213 -105
383 -140 632 -132 244 9 428 58 614 166 347 200 584 557 645 974 9 58 16 136
16 173 l0 69 56 44 c49 39 164 165 164 181 0 3 -37 -6 -82 -21 -46 -15 -103
-29 -128 -33 -45 -6 -45 -5 -20 11 48 32 117 112 150 174 19 36 27 60 19 56
-8 -3 -50 -22 -94 -41 -44 -19 -105 -41 -135 -49 l-55 -14 -43 38 c-109 95
-276 132 -421 93z"/>
</g>
</svg>
